<svg xmlns="http://www.w3.org/2000/svg" xmlns:xlink="http://www.w3.org/1999/xlink" width="22" height="19" viewBox="0 0 22 19"><defs><path id="k1laa" d="M1646.905 11401.332v2.461c-.002.663-.88 1.182-2.19 1.57v2.3a.761.761 0 0 1-.072.317c.754.302 1.135.66 1.16 1.092h.006v2.462c-.003 1.17-2.736 1.897-5.774 2.236-.022.005-.043.014-.067.014-.007 0-.013-.004-.02-.004a37.01 37.01 0 0 1-1.769.15c-.013 0-.023.006-.036.006-.007 0-.013-.003-.02-.004a36.9 36.9 0 0 1-2.17.066 37.51 37.51 0 0 1-2.172-.065c-.007 0-.012.003-.02.003-.012 0-.023-.005-.035-.007a36.996 36.996 0 0 1-1.77-.149c-.007.001-.013.005-.02.005-.023 0-.044-.01-.066-.014-3.038-.34-5.772-1.066-5.775-2.236v-2.462h.006a.752.752 0 0 1 .048-.22c-.713-.328-1.148-.722-1.15-1.188v-2.463h.005c.035-.592.752-1.056 2.186-1.412v-2.458h.006a.765.765 0 0 1 .033-.18c-1.332-.389-2.227-.912-2.23-1.58v-2.463h.007c.13-2.05 8.85-2.111 9.851-2.111 1.001 0 9.72.061 9.851 2.111h.006v2.462a.769.769 0 0 1-.078.33c1.486.358 2.228.83 2.265 1.431zm-2.92 6.331v-1.456a5.55 5.55 0 0 1-1.096.484v1.678c.42-.159.74-.323.931-.486l.125-.105a.22.22 0 0 0 .04-.115zm-7.538 1.728l.236-.01v-1.757c-.366.017-.734.027-1.101.033l-.058.002-.301.004v1.757l.396-.004.16-.003c.226-.005.448-.012.668-.022zm-2.167.029l.212.002v-1.759c-.1 0-.2-.002-.301-.004h-.058a35.652 35.652 0 0 1-1.1-.035v1.758c.195.008.393.017.592.023l.06.002c.166.004.333.008.5.01l.095.003zm-6.555-.768c.281.074.59.146.926.214v-1.717a16.596 16.596 0 0 1-1.096-.243v1.7l.036.01c.043.013.09.024.134.036zm7.503 2.876a38.045 38.045 0 0 1-1.101-.034v1.758c.469.022.956.036 1.46.04v-1.759c-.1 0-.2-.002-.3-.004h-.059zm1.39.001l-.3.004v1.759c.504-.005.991-.018 1.46-.04v-1.758a43.84 43.84 0 0 1-1.101.034l-.058.001zm1.89-.075v1.755c.38-.026.744-.057 1.095-.092v-1.748c-.36.034-.725.062-1.095.085zm1.825 1.579c.386-.049.752-.102 1.096-.16v-1.729c-.354.056-.72.106-1.096.15zm1.826-.296c.404-.083.77-.17 1.095-.262v-1.698c-.341.088-.708.168-1.095.243zm-13.508-1.96v1.698c.325.091.691.179 1.095.262v-1.717a17.544 17.544 0 0 1-1.095-.243zm1.825 2.095c.344.06.71.114 1.095.162v-1.74a26.035 26.035 0 0 1-1.095-.149zm1.825.245c.351.035.716.066 1.096.093v-1.755c-.37-.024-.736-.052-1.096-.086zm0-3.78v-1.751c-.37-.025-.736-.053-1.095-.087v1.748l.079.008.11.01c.297.028.6.052.906.073zm-2.92-2.063v1.728c.344.058.71.113 1.095.16v-1.739a27.161 27.161 0 0 1-1.095-.149zm8.434 2.036c.236-.02.467-.041.693-.063v-1.748c-.36.034-.725.062-1.095.086v1.754a13.07 13.07 0 0 0 .402-.03zm2.518-.308v-1.728c-.353.055-.719.105-1.095.15v1.739c.386-.047.751-.103 1.095-.161zm.73-.136c.404-.082.77-.17 1.096-.261v-1.7c-.341.09-.708.17-1.096.244zm-4.911-3.323c.173.004.352.004.53.007v-1.757l-.301-.004-.058-.002a40.726 40.726 0 0 1-1.1-.033v1.757l.041.002c.264.012.532.022.807.028l.08.002zm-8.201-4.926c.181.046.37.088.564.13l.136.028v-1.719a16.596 16.596 0 0 1-1.096-.243v1.7c.127.034.258.07.396.104zm6.182-1.051a40.751 40.751 0 0 1-1.101-.033v1.754c.48.023.969.037 1.46.04v-1.757c-.1 0-.2-.001-.301-.004h-.058zm1.39 0c-.1.003-.2.003-.3.004v1.759c.131-.002.264-.002.394-.005l.118-.002c.253-.006.503-.014.748-.024l.015-.001.184-.01v-1.754a47.47 47.47 0 0 1-1.1.033h-.059zm8.461.003v-1.456a5.468 5.468 0 0 1-1.095.485v1.673c.38-.14.676-.286.868-.431l.133-.1.01.001c.055-.06.084-.117.084-.172zm-3.65 1.338v-1.725c-.354.056-.72.105-1.096.149v1.738c.385-.049.75-.104 1.095-.162zm1.825-.397v-1.697c-.341.089-.708.17-1.096.243v1.716c.4-.084.769-.171 1.096-.262zm-4.746-1.018v1.752a30.17 30.17 0 0 0 1.095-.093v-1.745c-.36.033-.725.062-1.095.086zm-5.112 1.75v-1.75c-.37-.024-.736-.053-1.095-.086v1.746c.357.037.724.067 1.095.09zm-2.92-2.06v1.728l.12.02c.201.032.408.064.619.094l.137.018.22.028v-1.74a27.18 27.18 0 0 1-1.096-.147zm5.11 6.286v-1.753c-.37-.024-.735-.053-1.094-.086v1.747c.01 0 .02.002.029.003l.143.014c.223.021.45.04.685.06l.147.009.09.006zm-2.477-.264c.21.031.43.06.653.09v-1.74a31.645 31.645 0 0 1-1.096-.15v1.726a23.829 23.829 0 0 0 .443.074zm-2.268-2.169v1.694c.326.092.692.181 1.095.264v-1.714a16.612 16.612 0 0 1-1.095-.244zm-1.825-.699v1.457c0 .011.004.023.006.034l.024.039c.12.194.49.412 1.065.626v-1.672a5.545 5.545 0 0 1-1.095-.484zm9.793 1.453l-.301.004v1.756c.492-.005.98-.018 1.46-.04v-1.755c-.366.016-.734.027-1.101.033l-.058.002zm4.81 1.342v-1.726a29.97 29.97 0 0 1-1.095.148v1.738a30.208 30.208 0 0 0 .573-.076c.166-.024.328-.05.488-.078l.034-.006zm-2.468.303c.219-.018.43-.038.642-.06v-1.745c-.359.033-.725.062-1.095.086v1.75c.138-.009.279-.016.415-.027.013 0 .025-.002.038-.004zm4.294-.698v-1.701c-.341.089-.708.17-1.096.244v1.716l.087-.017a13.904 13.904 0 0 0 .849-.2l.16-.042zm-.286-4.242c-.022.014-.05.027-.072.04-.041.026-.085.05-.129.075-.038.022-.073.043-.114.064-.09.047-.189.092-.29.135l-.082.034c-.095.04-.194.08-.298.117-.02.008-.04.016-.062.023a8.358 8.358 0 0 1-.381.126c-.045.015-.093.027-.139.041-.076.023-.153.045-.232.067-1.71.47-4.169.774-6.822.814a33.02 33.02 0 0 1-1.41-.004c-.46-.01-.912-.03-1.36-.054h-.006l-.014-.001a35.973 35.973 0 0 1-1.81-.15h-.002l-.007-.001a25.605 25.605 0 0 1-2.824-.463c-.026-.007-.053-.011-.078-.017-.005.008-.005.014-.006.02.041.237.602.554 1.597.85 1.291.385 3.313.736 5.874.845.13.006.261.012.396.015l.33.01a39.468 39.468 0 0 0 1.85 0l.33-.01c.133-.003.264-.009.395-.014 2.561-.11 4.583-.461 5.874-.847 1.003-.297 1.565-.616 1.599-.854-.042-.146-.473-.52-2.107-.861zm-18.328-3.355c.044.238.604.553 1.596.849 1.292.384 3.313.736 5.874.846l.396.014.33.01c.302.006.609.011.925.011a43.766 43.766 0 0 0 1.255-.021l.396-.014c2.56-.11 4.582-.462 5.874-.846.992-.296 1.553-.61 1.597-.849-.057-.523-3.102-1.436-9.122-1.436s-9.065.913-9.121 1.436zm1.09 3.144v-1.685a5.464 5.464 0 0 1-1.096-.485v1.458c0 .198.385.456 1.095.712zm-1.092 4.941c.032.239.594.557 1.598.856 1.292.385 3.313.737 5.874.846l.396.014c.11.004.219.008.33.01a39.455 39.455 0 0 0 1.623.005c.091-.003.182-.004.271-.005l.247-.008c2.768-.086 4.945-.455 6.309-.861a6.847 6.847 0 0 0 1.08-.408c-1.224.256-2.672.432-4.215.522H1639.233a43.45 43.45 0 0 1-2.185.062 41.616 41.616 0 0 1-2.19-.062h-.004c-1.539-.088-2.951-.262-4.134-.506l-.288-.059a4.977 4.977 0 0 0-.091-.02c-1.288-.286-2.323-.667-2.823-1.153-.006-.006-.014-.01-.02-.017-1.354.32-1.723.652-1.764.784zm.878 3.07l.005-.003.208.078v-1.678a5.587 5.587 0 0 1-1.095-.484v1.457c0 .177.31.402.882.63zm1.309 3.952v-1.684a5.628 5.628 0 0 1-1.096-.484v1.456c.001.198.386.455 1.096.712zm17.158-.713v-1.455a5.631 5.631 0 0 1-1.095.484v1.684c.71-.258 1.095-.515 1.095-.713zm-.947-2.991c-.033.022-.073.043-.108.065l-.117.071-.101.056c-.64.342-1.574.618-2.652.831l-.076.016-.348.064c-.57.103-1.186.191-1.834.264-.008 0-.015.005-.023.005l-.006-.002c-.582.065-1.188.117-1.814.153h-.008a36.613 36.613 0 0 1-2.65.058 37.312 37.312 0 0 1-1.727-.058h-.003c-1.833-.105-3.53-.337-4.86-.665l-.178-.045-.118-.031c-.103-.029-.204-.055-.303-.085-.011-.002-.023-.006-.035-.01a20.715 20.715 0 0 1-.337-.106c.07.235.628.54 1.594.827 1.291.384 3.312.736 5.874.846l.398.015.326.01a43.753 43.753 0 0 0 2.181-.01c.134-.004.265-.01.396-.015 2.561-.11 4.582-.461 5.874-.845.997-.297 1.558-.614 1.598-.851-.024-.089-.223-.31-.943-.558zm2.043-4.75v-1.456a5.583 5.583 0 0 1-1.096.485v1.684c.71-.256 1.095-.514 1.096-.713z"/></defs><g><g transform="translate(-1625 -11395)"><use fill="#1a988c" xlink:href="#k1laa"/></g></g></svg>