<svg xmlns="http://www.w3.org/2000/svg" xmlns:xlink="http://www.w3.org/1999/xlink" width="32" height="18" viewBox="0 0 32 18"><defs><path id="p2ola" d="M1662 651v6.915c0 .469-.365.853-.81.853h-1.81c-.276 1.278-1.357 2.23-2.653 2.23s-2.45-.727-2.727-1.998h-9c.25.914-.992 1.998-2.288 1.998-1.296 0-2.442-.72-2.712-1.998-.02 0 .02 0 0 0h-2c-.446 0-1.143-.817-1-2v-1h-3c-.446 0-1.178-.44-1.178-.909 0-.467.732-1.091 1.178-1.091h3c.014 0 .588.24.602.24 1.465-.024 1.398 1.293 1.398 1.76v1l1.012.069a.8.8 0 0 1 .175.02c.399-1.057 1.378-1.811 2.525-1.811 1.141 0 2.12.747 2.525 1.798.034-.007.068-.007.101-.007l6.662-.07V645h-13s0 1-.011 1.462c.032 1.033-.384 1.322-.989 1.538-.006.002 0 0 0 0h-4c-.446 0-1-.533-1-1 0-.47.554-1 1-1h3v-2c0-.47.554-1 1-1l14.77-.003c.446 0 1.23.534 1.23 1.003v2h4c1.411 0 1.657.344 2.548 1.36.945 1.08 1.452 1.801 1.452 3.64zm-18.187 7.142c0-.64-.493-1.159-1.1-1.159-.608 0-1.101.519-1.101 1.159s.493 1.158 1.1 1.158c.608 0 1.1-.519 1.1-1.158zm14.015 0c0-.64-.493-1.159-1.101-1.159s-1.1.519-1.1 1.159.492 1.158 1.1 1.158c.6 0 1.094-.519 1.1-1.158zM1660 652c0-2.72-.873-4-3-4h-3v9l.209.069c.405-1.052 1.384-1.791 2.518-1.791s2.113.747 2.518 1.791l.755-.07zm-16 0h-13c-.436 0-1-.573-1-1.032 0-.46.564-.968 1-.968h13l-.294-.487a.872.872 0 0 1 0-1.187c.31-.326.984-.652 1.294-.326l1.769 2.376.006.007c.014.02.033.035.047.056.006.014.013.02.02.035.013.014.02.02.026.035l.02.041c.006.015.013.021.02.034.006.015.013.029.02.042 0 .016.006.022.012.036.007.013.007.027.014.042.006.007.006.021.013.034 0 .014.007.028.007.042 0 .014.006.028.006.041 0 .022.007.036.007.051a.72.72 0 0 1 .007.202c0 .014-.007.02-.007.035 0 .02-.007.034-.007.047 0 .015-.006.028-.006.042 0 .015 0 .028-.007.041-.007.008-.007.021-.013.036-.007.015-.007.028-.014.043 0 .012-.006.02-.013.033-.006.014-.013.03-.02.042-.006.013-.013.021-.02.034l-.019.044a.12.12 0 0 0-.026.035c-.007.013-.014.02-.02.035-.014.02-.033.034-.047.054l-.006.006-2.04 2.155a.786.786 0 0 1-.561.244.775.775 0 0 1-.561-.244c-.31-.328-.917-.43-.607-.756z"/></defs><g><g opacity=".9" transform="translate(-1630 -643)"><use fill="#f57373" xlink:href="#p2ola"/></g></g></svg>