<svg xmlns="http://www.w3.org/2000/svg" xmlns:xlink="http://www.w3.org/1999/xlink" width="24" height="24" viewBox="0 0 24 24"><defs><path id="ihwqa" d="M1356.495 1912.997l5.94-5.939c.376-.377.565-.836.565-1.375a1.87 1.87 0 0 0-.566-1.373l-2.747-2.746a1.87 1.87 0 0 0-1.374-.567c-.539 0-.997.189-1.374.567l-5.94 5.939-5.939-5.94a1.869 1.869 0 0 0-1.373-.566c-.539 0-.997.189-1.374.567l-2.748 2.746a1.87 1.87 0 0 0-.565 1.373c0 .54.188.998.565 1.375l5.94 5.939-5.94 5.94a1.872 1.872 0 0 0-.565 1.373c0 .539.188.996.565 1.375l2.748 2.746c.377.378.835.565 1.374.565.539 0 .996-.187 1.373-.565l5.94-5.938 5.94 5.938c.376.378.834.565 1.373.565s.997-.187 1.374-.565l2.747-2.746c.377-.378.566-.836.566-1.375 0-.538-.189-.996-.566-1.374z"/></defs><g><g transform="translate(-1339 -1901)"><use fill="#fff" xlink:href="#ihwqa"/></g></g></svg>