<svg xmlns="http://www.w3.org/2000/svg" xmlns:xlink="http://www.w3.org/1999/xlink" width="28" height="22" viewBox="0 0 28 22"><defs><path id="w572a" d="M764.49 1906.035l-2.455-2.519a1.651 1.651 0 0 0-1.228-.518c-.482 0-.892.173-1.229.518l-11.847 12.164-5.31-5.461a1.65 1.65 0 0 0-1.228-.519 1.65 1.65 0 0 0-1.228.519l-2.456 2.518a1.735 1.735 0 0 0-.506 1.258c0 .494.168.914.506 1.259l6.537 6.704 2.457 2.516c.337.346.746.52 1.228.52a1.65 1.65 0 0 0 1.228-.52l2.456-2.516 13.076-13.406c.337-.344.505-.765.505-1.258s-.168-.915-.505-1.26z"/></defs><g><g transform="translate(-737 -1903)"><use fill="#fff" xlink:href="#w572a"/></g></g></svg>