<svg xmlns="http://www.w3.org/2000/svg" xmlns:xlink="http://www.w3.org/1999/xlink" width="30" height="28" viewBox="0 0 30 28"><defs><path id="zgo9a" d="M1650 59.94v2.058h-23v-2.157c0-1.682.9-3.227 2.35-4.033l4.461-2.476c.425-.237.689-.689.689-1.182v-1.684c-.335-.447-1.294-1.839-1.752-3.684a2.039 2.039 0 0 1-.748-1.583v-2.036c0-.491.18-.967.5-1.338v-2.707c-.028-.28-.138-1.948 1.046-3.323 1.027-1.192 2.693-1.796 4.954-1.796 2.26 0 3.927.604 4.954 1.798 1.184 1.374 1.074 3.041 1.046 3.32v2.708c.32.372.5.847.5 1.338V45.2c0 .802-.458 1.512-1.164 1.841a11.732 11.732 0 0 1-1.477 2.953 8.316 8.316 0 0 1-.36.483v1.723c0 .512.28.974.731 1.203l4.777 2.431c1.537.783 2.493 2.357 2.493 4.107zm7 .176v1.882h-6.25V59.94c0-2.042-1.115-3.878-2.908-4.79l-4.777-2.433a.571.571 0 0 1-.315-.52v-1.455a12.49 12.49 0 0 0 1.696-3.17 2.81 2.81 0 0 0 1.303-2.373v-2.036a2.82 2.82 0 0 0-.5-1.6v-2.409a5.595 5.595 0 0 0-.332-2.33 7.28 7.28 0 0 1 1.686-.21c5.906.05 6.103 6.139 6.105 6.2.068 3.582 2.244 7.112 3.177 8.463.258.375.336.843.213 1.284a1.49 1.49 0 0 1-.835.972c-.68.298-1.463.359-2 .359-.292 0-.48-.018-.48-.018l-3.263.003c.11.19.237.334.352.392l4.861 2.143a4.124 4.124 0 0 1 2.267 3.704z"/></defs><g><g transform="translate(-1627 -34)"><use fill="#e6c42c" xlink:href="#zgo9a"/></g></g></svg>