<svg xmlns="http://www.w3.org/2000/svg" xmlns:xlink="http://www.w3.org/1999/xlink" width="47" height="44" viewBox="0 0 47 44"><defs><path id="1dxqa" d="M1507.666 10798.282a3.14 3.14 0 0 1-3.133 3.142 3.14 3.14 0 0 1-3.133-3.142 3.14 3.14 0 0 1 3.133-3.142 3.14 3.14 0 0 1 3.133 3.142zm-1.566 0a1.57 1.57 0 0 0-1.567-1.571 1.572 1.572 0 1 0 0 3.144c.864 0 1.567-.707 1.567-1.573zm12.533 0a3.14 3.14 0 0 1-3.133 3.142 3.14 3.14 0 0 1-3.134-3.142 3.14 3.14 0 0 1 3.134-3.142 3.14 3.14 0 0 1 3.133 3.142zm-1.567 0a1.57 1.57 0 0 0-1.566-1.571 1.572 1.572 0 0 0 0 3.144c.864 0 1.566-.707 1.566-1.573zm12.534 0a3.14 3.14 0 0 1-3.133 3.142 3.14 3.14 0 0 1-3.134-3.142 3.14 3.14 0 0 1 3.134-3.142 3.14 3.14 0 0 1 3.133 3.142zm-1.567 0a1.57 1.57 0 0 0-1.566-1.571 1.572 1.572 0 0 0 0 3.144c.863 0 1.566-.707 1.566-1.573zm10.967-12.571v25.929c0 2.554-2.153 4.714-4.7 4.714h-22.37l-7.6 8.385a.78.78 0 0 1-.862.205.785.785 0 0 1-.501-.733v-7.857h-6.267c-2.548 0-4.7-2.16-4.7-4.714v-25.93c0-2.555 2.152-4.713 4.7-4.713h37.6c2.547 0 4.7 2.158 4.7 4.714zm-1.567 0c0-1.704-1.435-3.142-3.133-3.142h-37.6c-1.698 0-3.134 1.438-3.134 3.142v25.929c0 1.703 1.436 3.143 3.134 3.143h7.05c.433 0 .783.35.783.784v6.611l6.471-7.14 3.903-4.55a.78.78 0 0 1 1.104-.083.788.788 0 0 1 .082 1.108l-2.803 3.27h21.01c1.698 0 3.133-1.44 3.133-3.143z"/></defs><g><g transform="translate(-1492 -10781)"><use fill="#1a988c" xlink:href="#1dxqa"/></g></g></svg>