<svg xmlns="http://www.w3.org/2000/svg" xmlns:xlink="http://www.w3.org/1999/xlink" width="42" height="44" viewBox="0 0 42 44"><defs><path id="fhbha" d="M1680.25 10795.65h7.5c.415 0 .75.331.75.735a.741.741 0 0 1-.75.733h-7.5a.741.741 0 0 1-.75-.733c0-.404.335-.734.75-.734zm4.5 4.403h4.5a.74.74 0 0 1 .75.733.742.742 0 0 1-.75.734h-4.5a.742.742 0 0 1-.75-.734.74.74 0 0 1 .75-.733zm-3-7.336a.742.742 0 0 1-.75-.732c0-.406.335-.736.75-.736h1.5c.415 0 .75.33.75.736a.742.742 0 0 1-.75.732zm0 7.336a.74.74 0 0 1 .75.733.742.742 0 0 1-.75.734h-7.5a.742.742 0 0 1-.75-.734.74.74 0 0 1 .75-.733zm-3 21.276a.742.742 0 0 1-.75.733h-14.25c-2.068 0-3.75-1.647-3.75-3.67v-32.887c-.873.304-1.5 1.12-1.5 2.077a.743.743 0 0 1-.75.734.743.743 0 0 1-.75-.734c0-2.023 1.682-3.67 3.75-3.67.415 0 .75.33.75.735v33.746c0 1.214 1.01 2.202 2.25 2.202H1678c.415 0 .75.328.75.734zm-12.75-24.944c0-.404.335-.734.75-.734h10.5c.414 0 .75.33.75.734a.741.741 0 0 1-.75.733h-10.5a.741.741 0 0 1-.75-.733zm0-4.4c0-.406.335-.736.75-.736h3c.415 0 .75.33.75.736a.741.741 0 0 1-.75.732h-3a.741.741 0 0 1-.75-.732zm13.5 0a.742.742 0 0 1-.75.732h-6a.741.741 0 0 1-.75-.732c0-.406.335-.736.75-.736h6c.415 0 .75.33.75.736zm16.5-4.387v30.814c0 .631-.178 1.263-.514 1.822a.763.763 0 0 1-1.027.26.727.727 0 0 1-.266-1.006c.2-.33.307-.706.307-1.076v-30.814c0-2.831-2.356-5.136-5.25-5.136h-28.5c-2.892 0-5.245 2.3-5.25 5.126.003 1.826 1.009 3.527 2.625 4.443a.724.724 0 0 1 .273 1.002.76.76 0 0 1-1.024.267c-2.074-1.173-3.364-3.354-3.374-5.694v-.033c.014-3.629 3.036-6.576 6.75-6.576h28.5c3.722 0 6.75 2.96 6.75 6.601zm-9 31.53c-2.482 0-4.5-1.975-4.5-4.402 0-2.43 2.018-4.402 4.5-4.402 2.481 0 4.5 1.973 4.5 4.402 0 2.427-2.018 4.401-4.5 4.401zm3-4.402c0-1.62-1.346-2.935-3-2.935-1.655 0-3 1.314-3 2.935 0 1.617 1.345 2.933 3 2.933 1.654 0 3-1.316 3-2.933zm-4.079 6.137l-2.222 3.765a.76.76 0 0 1-.627.367h-.023a.753.753 0 0 1-.626-.328l-.718-1.065-1.3-.075a.75.75 0 0 1-.615-.384.722.722 0 0 1 .01-.715l2.248-3.808a.76.76 0 0 1 1.025-.268c.359.202.482.65.275 1.001l-1.642 2.78.464.028a.75.75 0 0 1 .58.327l.257.38 1.614-2.738a.76.76 0 0 1 1.025-.27c.36.205.482.653.275 1.003zm8.278 1.565c.129.22.134.49.01.715a.75.75 0 0 1-.615.384l-1.3.076-.716 1.064a.756.756 0 0 1-.626.328h-.024a.757.757 0 0 1-.627-.367l-2.214-3.751a.724.724 0 0 1 .275-1 .761.761 0 0 1 1.025.267l1.606 2.724.255-.38a.758.758 0 0 1 .582-.327l.463-.027-1.622-2.745a.727.727 0 0 1 .275-1.004.759.759 0 0 1 1.025.27zm-28.2-21.642a.74.74 0 0 1 .75-.733h4.5c.415 0 .75.328.75.733a.742.742 0 0 1-.75.734h-4.5a.742.742 0 0 1-.75-.734zm0 4.403c0-.405.336-.734.75-.734h9c.416 0 .75.33.75.734a.742.742 0 0 1-.75.734h-9a.742.742 0 0 1-.75-.734zm.448 4.952c.522-.828 1.43-1.283 2.553-1.283.985 0 1.527.471 1.808.867.644.909.571 2.366.325 3.63.626-.366.884-.262 1.084-.181a.85.85 0 0 1 .526.704c.498-.344 1.043-.62 1.507-.62.388 0 .721.176.913.478.18.285.195.641.134.99h1.953c.414 0 .75.329.75.734a.742.742 0 0 1-.75.733h-3c-.26 0-.5-.132-.638-.35a.72.72 0 0 1-.007-.764 9.217 9.217 0 0 0-1.075.899.754.754 0 0 1-.818.157.726.726 0 0 1-.462-.675v-.36c-.302.254-.65.566-.97.878a.765.765 0 0 1-.936.099.727.727 0 0 1-.297-.876c.556-1.453 1.087-3.852.528-4.639-.084-.117-.218-.238-.575-.238-.602 0-1.031.197-1.277.587-.462.73-.295 2.035.447 3.487a.726.726 0 0 1-.335.985.76.76 0 0 1-1.006-.33c-.991-1.94-1.13-3.73-.382-4.912zm19.803-4.218h-7.5a.742.742 0 0 1-.75-.734c0-.405.335-.734.75-.734h7.5c.414 0 .75.33.75.734a.742.742 0 0 1-.75.734z"/></defs><g><g transform="translate(-1654 -10781)"><use fill="#1a988c" xlink:href="#fhbha"/></g></g></svg>