<svg xmlns="http://www.w3.org/2000/svg" xmlns:xlink="http://www.w3.org/1999/xlink" width="30" height="41" viewBox="0 0 30 41"><defs><path id="b9jwa" d="M977.876 55.953l.805-1.531.065-.022v13.508c0 .811-.852 1.339-1.574.973l-7.673-3.877a1.096 1.096 0 0 0-.978 0l-7.686 3.872a1.085 1.085 0 0 1-1.574-.972V54.395l.065.022.804 1.532a2.164 2.164 0 0 0 1.922 1.164h.078l1.722-.066 1.278 1.16a2.166 2.166 0 0 0 2.278.402l1.595-.654 1.596.654a2.167 2.167 0 0 0 2.278-.402l1.278-1.16 1.722.066h.078c.809 0 1.548-.445 1.921-1.16zm5.03-11.065a1.071 1.071 0 0 0-.143.806l.365 1.692c.087.41-.065.833-.395 1.09l-1.361 1.06c-.222.175-.37.428-.409.712l-.239 1.714a1.092 1.092 0 0 1-.743.89l-1.244.401-.4.131a1.07 1.07 0 0 0-.626.527l-.804 1.531c-.187.357-.56.58-.96.58h-.04l-1.722-.065h-.039c-.27 0-.53.1-.73.283l-1.278 1.16a1.073 1.073 0 0 1-1.139.201l-1.596-.654a1.02 1.02 0 0 0-.408-.082c-.14 0-.278.03-.409.082l-1.595.654c-.13.056-.27.083-.409.083-.265 0-.526-.1-.73-.284l-1.279-1.16a1.08 1.08 0 0 0-.73-.283h-.039l-1.722.065h-.039c-.4 0-.773-.223-.96-.58l-.805-1.531a1.084 1.084 0 0 0-.626-.527l-.4-.13-1.243-.402a1.097 1.097 0 0 1-.743-.89l-.24-1.714a1.097 1.097 0 0 0-.408-.712l-1.36-1.06a1.093 1.093 0 0 1-.397-1.09l.366-1.692a1.094 1.094 0 0 0-.144-.806l-.917-1.466a1.095 1.095 0 0 1 0-1.16l.917-1.466c.152-.24.204-.527.144-.807l-.366-1.692a1.091 1.091 0 0 1 .396-1.09l1.378-1.06c.222-.176.37-.428.409-.711l.239-1.715c.056-.414.348-.762.743-.89l1.64-.531c.269-.088.495-.275.625-.528l.805-1.532c.186-.357.56-.58.96-.58h.04l1.721.067h.04c.269 0 .53-.101.73-.285l1.278-1.16a1.073 1.073 0 0 1 1.139-.2l1.595.654c.13.057.27.083.409.083.139 0 .278-.03.408-.083l1.596-.655c.13-.056.27-.083.409-.083.265 0 .526.101.73.285l1.278 1.16c.2.183.46.284.73.284h.04l1.721-.066h.04c.4 0 .773.222.96.58l.804 1.531c.13.249.357.44.626.528l1.64.53c.395.132.686.477.743.891l.239 1.715c.039.283.187.535.408.71l1.361 1.06c.33.257.483.68.396 1.091l-.365 1.692c-.057.275-.01.567.143.807l.917 1.465c.222.358.222.807 0 1.16zm-2.495-2.046a11.418 11.418 0 0 0-3.339-8.096 11.326 11.326 0 0 0-3.625-2.45 11.308 11.308 0 0 0-4.444-.9 11.375 11.375 0 0 0-8.069 3.35 11.421 11.421 0 0 0-3.339 8.096 11.415 11.415 0 0 0 3.34 8.095 11.304 11.304 0 0 0 3.625 2.45c1.409.599 2.904.9 4.443.9 1.54 0 3.035-.301 4.444-.9a11.351 11.351 0 0 0 3.625-2.45 11.33 11.33 0 0 0 2.443-3.638c.596-1.413.896-2.914.896-4.457zm-1.304 0c0 .929-.126 1.831-.361 2.686-1.174 4.297-5.095 7.455-9.747 7.455s-8.573-3.158-9.747-7.455a10.14 10.14 0 0 1-.36-2.686c0-5.6 4.525-10.141 10.107-10.141 5.582 0 10.108 4.54 10.108 10.14zm-6.313 1.408l2.27-2.054.252-.23c.691-.63.33-1.78-.596-1.895l-3.304-.404-1.439-3.093a1.086 1.086 0 0 0-1.969 0l-1.44 3.093-3.303.404c-.922.115-1.287 1.266-.596 1.894l.252.23 2.27 2.055-.696 3.289c-.195.916.787 1.635 1.6 1.173L969 47.064l2.9 1.648c.817.467 1.795-.252 1.6-1.173z"/></defs><g><g transform="translate(-954 -28)"><use fill="#e6c42c" xlink:href="#b9jwa"/></g></g></svg>