<svg xmlns="http://www.w3.org/2000/svg" xmlns:xlink="http://www.w3.org/1999/xlink" width="30" height="34" viewBox="0 0 30 34"><defs><path id="cwvua" d="M1299.136 36.193h-.808v-.642h.808v-.805h.655v.805h.841v.642h-.84v.804h-.656zm.26 2.749c-4.535.072-6.692 2.179-6.692 2.179v-6.826c6.777-5.155 13.552 0 13.552 0v6.826s-2.325-2.251-6.86-2.18zm-1.919-2.782l2.033 1.89 1.972-1.89c.309-.256.506-.638.506-1.067 0-.773-.642-1.4-1.433-1.4-.429 0-.812.186-1.075.476a1.447 1.447 0 0 0-1.075-.475c-.792 0-1.434.626-1.434 1.4 0 .427.197.81.506 1.066zm-5.262 7.127l1.317-1.244c.079-.074 1.969-1.818 5.965-1.881l.198-.002c3.835 0 5.799 1.788 5.902 1.883l1.142 1.106c.014.183.028.365.028.551 0 3.93-3.264 8.86-7.287 8.86-4.024 0-7.288-4.93-7.288-8.86 0-.14.014-.275.023-.413zm22.726 15.975c.31 1.496-.383 3.774-1.753 4.506-2.045 1.097-5.94 2.285-13.188 2.224-7.25.061-11.144-1.127-13.19-2.224-1.368-.733-2.061-3.01-1.752-4.506 1.73-8.342 7.878-8.881 7.878-8.881l6.692 12.415 7.436-12.415s6.148.54 7.877 8.881zm-18.95 4.934l-.31-1.347c-2.788.614-6.154-.748-6.188-.761l-.549 1.272c.124.052 2.534 1.029 5.16 1.029a8.76 8.76 0 0 0 1.887-.193zm14.358-.573l-.549-1.272c-.034.014-3.392 1.377-6.188.763l-.31 1.346a8.82 8.82 0 0 0 1.887.192c2.626 0 5.036-.977 5.16-1.029z"/></defs><g><g transform="translate(-1285 -32)"><use fill="#e6c42c" xlink:href="#cwvua"/></g></g></svg>