<svg xmlns="http://www.w3.org/2000/svg" xmlns:xlink="http://www.w3.org/1999/xlink" width="18" height="23" viewBox="0 0 18 23"><defs><path id="wj4ja" d="M1647.804 11148.936c-1.705-2.07-1.422-5.613-1.39-5.95.11-2.556 1.243-3.77 2.174-4.34.925-.565 1.89-.652 2.382-.652h.075c.895.022 1.696.249 2.383.674.921.568 2.037 1.78 2.148 4.317.03.338.314 3.881-1.391 5.951-.775.938-1.824 1.427-3.122 1.454H1650.922c-1.298-.027-2.348-.516-3.118-1.454zm.89-.855c.553.676 1.302 1.014 2.276 1.022h.044c.98-.008 1.723-.346 2.28-1.022 1.41-1.703 1.1-4.943 1.095-4.975-.005-.01-.005-.027-.005-.039-.137-3.231-2.17-3.752-3.365-3.78h-.054c-.965 0-3.219.368-3.365 3.78 0 .009-.004.024-.004.039-.005.025-.306 3.28 1.098 4.975zm11.186 10.338a.635.635 0 0 1-.23.3c-.133.09-3.317 2.277-8.645 2.277-5.327 0-8.511-2.182-8.644-2.277a.61.61 0 0 1-.23-.3c-.235-.638-.23-1.91-.226-2.156v-.014c.004-.038.004-.076.004-.12.027-.941.084-3.144 2.007-3.856.013-.003.026-.009.044-.013 2.006-.548 3.657-1.785 3.675-1.799.27-.207.642-.136.833.159a.667.667 0 0 1-.146.89c-.076.054-1.838 1.379-4.044 1.988-1.031.398-1.146 1.583-1.178 2.668 0 .045-.004.083-.004.119-.009.427.022 1.09.093 1.471.722.44 3.552 1.958 7.812 1.958 4.278 0 7.09-1.513 7.808-1.95.07-.382.097-1.046.093-1.472-.005-.04-.005-.08-.005-.119-.031-1.087-.146-2.272-1.178-2.672-2.205-.607-3.968-1.928-4.043-1.986a.67.67 0 0 1-.146-.892.572.572 0 0 1 .832-.158c.018.015 1.679 1.25 3.676 1.8.013.005.03.008.044.013 1.922.707 1.98 2.91 2.006 3.855 0 .042.005.08.005.12v.015c.004.247.009 1.518-.213 2.15z"/></defs><g><g transform="translate(-1642 -11138)"><use fill="#1a988c" xlink:href="#wj4ja"/></g></g></svg>