<svg xmlns="http://www.w3.org/2000/svg" xmlns:xlink="http://www.w3.org/1999/xlink" width="19" height="23" viewBox="0 0 19 23"><defs><path id="wnc9a" d="M1648.166 383.94c-1.78-2.069-1.484-5.612-1.452-5.95.116-2.556 1.299-3.77 2.27-4.339.966-.566 1.973-.653 2.486-.653h.079c.933.023 1.77.249 2.486.674.962.57 2.126 1.78 2.242 4.318.032.338.328 3.881-1.452 5.95-.808.938-1.904 1.427-3.258 1.455h-.148c-1.354-.028-2.45-.517-3.253-1.455zm.929-.855c.577.676 1.358 1.014 2.375 1.022h.046c1.022-.008 1.798-.346 2.38-1.022 1.47-1.701 1.147-4.942 1.142-4.975-.005-.01-.005-.026-.005-.04-.143-3.23-2.264-3.752-3.512-3.778h-.056c-1.007 0-3.36.367-3.512 3.779 0 .01-.005.024-.005.04-.004.025-.319 3.28 1.147 4.974zm11.674 10.338a.637.637 0 0 1-.24.3c-.139.091-3.462 2.278-9.022 2.278-5.56 0-8.883-2.183-9.022-2.277a.612.612 0 0 1-.24-.301c-.245-.638-.24-1.91-.236-2.156v-.014c.005-.037.005-.077.005-.12.028-.941.088-3.144 2.094-3.855.014-.003.027-.009.046-.013 2.094-.55 3.817-1.786 3.836-1.8a.607.607 0 0 1 .869.16.648.648 0 0 1-.153.89c-.078.053-1.918 1.378-4.22 1.989-1.076.395-1.197 1.582-1.229 2.665 0 .047-.004.084-.004.12-.01.427.023 1.092.097 1.471.753.44 3.706 1.957 8.153 1.957 4.464 0 7.399-1.51 8.148-1.951.073-.38.101-1.043.097-1.47-.005-.04-.005-.079-.005-.12-.032-1.086-.153-2.27-1.23-2.67-2.301-.61-4.14-1.929-4.219-1.987a.651.651 0 0 1-.152-.893.611.611 0 0 1 .868-.156c.019.014 1.752 1.249 3.836 1.799.014.006.033.01.047.014 2.006.706 2.066 2.909 2.093 3.853 0 .043.005.081.005.12v.016c.005.246.01 1.516-.222 2.15z"/></defs><g><g transform="translate(-1642 -373)"><use fill="#779a0b" xlink:href="#wnc9a"/></g></g></svg>