<svg xmlns="http://www.w3.org/2000/svg" xmlns:xlink="http://www.w3.org/1999/xlink" width="16" height="16" viewBox="0 0 16 16"><defs><path id="m8nha" d="M992.662 3717.997l3.959-3.957a1.25 1.25 0 0 0 .377-.918 1.25 1.25 0 0 0-.377-.915l-1.831-1.83a1.248 1.248 0 0 0-.916-.378c-.359 0-.664.127-.915.378l-3.96 3.957-3.958-3.957a1.248 1.248 0 0 0-.915-.378c-.36 0-.665.127-.916.378l-1.831 1.83a1.25 1.25 0 0 0-.377.915c0 .36.125.666.377.918l3.958 3.957-3.958 3.958a1.25 1.25 0 0 0-.377.918c0 .357.125.663.377.914l1.831 1.831c.251.252.557.377.916.377s.664-.125.915-.377l3.959-3.958 3.959 3.958c.251.252.556.377.916.377.358 0 .664-.125.915-.377l1.83-1.83c.252-.252.378-.558.378-.915 0-.36-.126-.665-.377-.918z"/></defs><g><g transform="translate(-981 -3710)"><use fill="#f57373" xlink:href="#m8nha"/></g></g></svg>