<svg xmlns="http://www.w3.org/2000/svg" xmlns:xlink="http://www.w3.org/1999/xlink" width="20" height="24" viewBox="0 0 20 24"><defs><path id="djf6a" d="M1660.45 11232.153c.426.56.61 1.183.537 1.804-.073.615-.393 1.178-.928 1.634-.233.199-.47.385-.7.563-.338.264-.659.513-.945.792-.006.012-.017.017-.022.024-.827.733-1.806 1.024-2.913.884-.096-.012-.201-.033-.301-.049-1.632-.318-3.029-1.15-4.067-1.833-2.716-1.822-5-4.2-6.792-7.077-1.476-2.384-2.398-4.548-2.917-6.827-.212-.93-.465-2.337-.177-3.779a3.686 3.686 0 0 1 1.314-2.183l1.832-1.504.011-.009c.536-.415 1.132-.598 1.717-.524.585.074 1.111.4 1.52.94.276.337.54.694.792 1.043.125.178.26.356.39.529l1.148 1.53c.884 1.17.724 2.527-.407 3.444-.15.123-.302.252-.453.374-.399.33-.81.672-1.247.994.214.71.538 1.428 1.044 2.288 1.05 1.738 2.197 3.126 3.506 4.241.128.11.28.215.443.33.112.075.23.16.346.245l1.7-1.375c.544-.447 1.141-.635 1.731-.562.595.076 1.124.42 1.53.98zm-1.032.825l-2.318-3.087-.008-.008c-.129-.189-.35-.415-.648-.456-.302-.033-.585.136-.768.284l-1.841 1.496c-.092.076-.372.306-.77.252a.997.997 0 0 1-.46-.187c-.018-.008-.036-.028-.053-.04a6.14 6.14 0 0 0-.444-.324 6.96 6.96 0 0 1-.55-.409c-1.42-1.208-2.66-2.707-3.783-4.575l-.004-.005c-.616-1.054-1-1.92-1.239-2.823l-.009-.047c-.053-.293-.08-.724.383-1.103.006-.008.016-.011.027-.017.463-.336.894-.688 1.348-1.062.155-.121.306-.25.462-.381.571-.46.629-.95.183-1.543l-1.149-1.523c-.133-.187-.268-.365-.398-.545a22.538 22.538 0 0 0-.758-1c-.004-.01-.008-.013-.012-.02-.135-.178-.357-.4-.66-.44-.244-.028-.508.062-.77.264l-1.836 1.489a2.32 2.32 0 0 0-.837 1.397c-.18.903-.13 1.888.169 3.19.484 2.127 1.353 4.16 2.747 6.418 1.69 2.707 3.844 4.953 6.397 6.663.934.622 2.19 1.367 3.603 1.644.071.014.148.023.22.034.748.094 1.348-.084 1.896-.564.34-.326.696-.608 1.044-.878.23-.182.445-.35.657-.533-.006.003-.005 0 0 0 .551-.466.613-.989.18-1.561z"/></defs><g><g transform="translate(-1641 -11214)"><use fill="#1a988c" xlink:href="#djf6a"/></g></g></svg>