<svg xmlns="http://www.w3.org/2000/svg" xmlns:xlink="http://www.w3.org/1999/xlink" width="21" height="24" viewBox="0 0 21 24"><defs><path id="prgca" d="M1661.364 467.157c.444.56.636 1.185.56 1.804-.076.615-.41 1.178-.968 1.634-.243.198-.49.385-.73.563-.353.264-.689.513-.988.793-.006.011-.016.016-.022.024-.863.732-1.885 1.024-3.04.882-.1-.012-.21-.032-.315-.046-1.703-.32-3.16-1.151-4.244-1.834-2.834-1.822-5.218-4.202-7.088-7.077-1.54-2.386-2.503-4.55-3.045-6.827-.22-.931-.484-2.338-.185-3.78a3.663 3.663 0 0 1 1.372-2.182l1.913-1.504.01-.01c.56-.415 1.182-.597 1.793-.523.61.073 1.16.4 1.586.938.288.34.564.696.827 1.044.13.178.27.357.407.53l1.198 1.528c.922 1.17.755 2.529-.425 3.448-.157.121-.315.251-.473.37-.416.332-.845.673-1.301.996.222.71.561 1.428 1.09 2.288 1.096 1.737 2.292 3.126 3.658 4.241.134.11.293.215.463.328.117.078.239.16.36.247l1.775-1.376c.568-.447 1.191-.634 1.807-.562.62.077 1.172.42 1.596.98zm-1.077.825l-2.42-3.087-.008-.007c-.134-.19-.365-.415-.676-.456-.315-.034-.61.136-.802.285l-1.921 1.495c-.096.075-.388.306-.804.252a1.094 1.094 0 0 1-.48-.187c-.018-.01-.036-.029-.055-.04a6.73 6.73 0 0 0-.463-.326 6.532 6.532 0 0 1-.575-.409c-1.481-1.207-2.775-2.706-3.947-4.575l-.005-.004c-.642-1.054-1.043-1.921-1.292-2.823l-.01-.046c-.055-.295-.083-.726.4-1.102.006-.01.017-.012.028-.02.483-.335.933-.687 1.406-1.061.162-.122.32-.25.483-.38.596-.46.656-.951.19-1.544l-1.198-1.524c-.14-.186-.28-.364-.415-.543-.267-.352-.521-.683-.791-1.001-.005-.01-.01-.012-.014-.019-.14-.18-.372-.4-.687-.44-.255-.029-.53.062-.805.262l-1.916 1.49c-.466.362-.75.82-.873 1.398-.187.904-.136 1.887.176 3.19.505 2.127 1.413 4.158 2.867 6.417 1.764 2.707 4.012 4.952 6.676 6.663.975.622 2.285 1.366 3.76 1.646.074.013.154.02.23.033.78.093 1.407-.085 1.98-.565a13.05 13.05 0 0 1 1.088-.877c.241-.182.465-.35.686-.534-.006.003-.005 0 0 0 .575-.465.64-.988.187-1.561z"/></defs><g><g transform="translate(-1641 -449)"><use fill="#779a0b" xlink:href="#prgca"/></g></g></svg>